<svg width="57" height="57" viewBox="0 0 57 57" fill="none" xmlns="http://www.w3.org/2000/svg">
    <path fill-rule="evenodd" clip-rule="evenodd" d="M0.34761 28.2904C0.34761 12.7836 12.9047 0.198425 28.4396 0.198425C43.9464 0.198425 56.5316 12.7836 56.5316 28.2904C56.5316 43.8252 43.9464 56.3824 28.4396 56.3824C12.9047 56.3824 0.34761 43.8252 0.34761 28.2904ZM34.7041 33.4312L39.255 19.0482C39.564 18.0649 38.6651 17.1379 37.6819 17.4469L23.2988 21.9416C22.7088 22.1383 22.2313 22.5877 22.0627 23.1776L17.568 37.5888C17.259 38.5439 18.186 39.471 19.1412 39.162L33.4681 34.6672C34.058 34.4987 34.5356 34.0211 34.7041 33.4312Z" fill="#200E32"/>
</svg>
